<svg width="19" height="15" viewBox="0 0 19 15" fill="none" xmlns="http://www.w3.org/2000/svg">
<path d="M8.42614 12H5.01705L6.46591 3.27273H9.73864C10.6364 3.27273 11.3864 3.45312 11.9886 3.81392C12.5909 4.17472 13.0185 4.69034 13.2713 5.3608C13.5241 6.03125 13.5739 6.82955 13.4205 7.75568C13.2727 8.64773 12.973 9.41051 12.5213 10.044C12.0724 10.6776 11.4986 11.1619 10.7997 11.4972C10.1037 11.8324 9.3125 12 8.42614 12ZM7.71875 9.98864H8.57955C9.01136 9.98864 9.39631 9.91335 9.73438 9.76278C10.0753 9.60937 10.3594 9.35369 10.5866 8.99574C10.8168 8.63494 10.983 8.14205 11.0852 7.51705C11.1818 6.92614 11.179 6.47017 11.0767 6.14915C10.9744 5.82528 10.7798 5.60085 10.4929 5.47585C10.206 5.34801 9.83523 5.28409 9.38068 5.28409H8.50284L7.71875 9.98864Z" fill="black"/>
<path d="M6.0625 3.27273H8.39773L7.40909 9.25568C7.3125 9.82386 7.08807 10.3239 6.7358 10.7557C6.38352 11.1847 5.93892 11.5199 5.40199 11.7614C4.86506 12 4.27273 12.1193 3.625 12.1193C3.06818 12.1193 2.57386 12.0227 2.14205 11.8295C1.71307 11.6335 1.39489 11.3267 1.1875 10.9091C0.982955 10.4886 0.9375 9.94318 1.05114 9.27273H3.42045C3.39205 9.49432 3.39773 9.6804 3.4375 9.83097C3.47727 9.97869 3.55114 10.0909 3.65909 10.1676C3.76705 10.2415 3.90909 10.2784 4.08523 10.2784C4.26136 10.2784 4.41619 10.2401 4.54972 10.1634C4.68324 10.0838 4.79403 9.96875 4.8821 9.81818C4.97017 9.66477 5.03409 9.47727 5.07386 9.25568L6.0625 3.27273Z" fill="#03741C"/>
<path d="M18.0597 6.54545H15.6903C15.7074 6.34375 15.696 6.16193 15.6562 6C15.6165 5.83807 15.5483 5.69886 15.4517 5.58239C15.3551 5.46307 15.2287 5.37216 15.0724 5.30966C14.9162 5.24716 14.7301 5.21591 14.5142 5.21591C14.0994 5.21591 13.7287 5.3196 13.402 5.52699C13.0753 5.73153 12.804 6.02557 12.5881 6.40909C12.3722 6.78977 12.2188 7.24432 12.1278 7.77273C12.0483 8.28409 12.0455 8.70881 12.1193 9.04688C12.196 9.38494 12.3452 9.63778 12.5668 9.8054C12.7912 9.97301 13.0824 10.0568 13.4403 10.0568C13.679 10.0568 13.8977 10.0284 14.0966 9.97159C14.2983 9.91477 14.4773 9.83381 14.6335 9.72869C14.7926 9.62074 14.9276 9.4929 15.0384 9.34517C15.152 9.1946 15.2386 9.02841 15.2983 8.84659H17.6847C17.5938 9.21591 17.4318 9.59375 17.1989 9.98011C16.9659 10.3636 16.6648 10.7173 16.2955 11.0412C15.9261 11.3622 15.4915 11.6222 14.9915 11.821C14.4915 12.0199 13.929 12.1193 13.304 12.1193C12.4858 12.1193 11.7798 11.9403 11.1861 11.5824C10.5952 11.2244 10.1662 10.7017 9.89915 10.0142C9.63494 9.3267 9.58239 8.48864 9.74148 7.5C9.90057 6.54545 10.2145 5.74574 10.6832 5.10085C11.152 4.45597 11.7216 3.97017 12.392 3.64347C13.0625 3.31676 13.7756 3.15341 14.5312 3.15341C15.1023 3.15341 15.6136 3.22869 16.0653 3.37926C16.5199 3.52983 16.902 3.75 17.2116 4.03977C17.5241 4.3267 17.7543 4.6804 17.902 5.10085C18.0497 5.52131 18.1023 6.00284 18.0597 6.54545Z" fill="#03741C"/>
</svg>
