<svg width="19" height="15" viewBox="0 0 19 15" fill="none" xmlns="http://www.w3.org/2000/svg">
<path d="M8.42618 12.0007H5.01709L6.46595 3.27344H9.73868C10.6364 3.27344 11.3864 3.45383 11.9886 3.81463C12.5909 4.17543 13.0185 4.69105 13.2713 5.36151C13.5241 6.03196 13.5739 6.83026 13.4205 7.75639C13.2727 8.64844 12.973 9.41122 12.5213 10.0447C12.0724 10.6783 11.4986 11.1626 10.7997 11.4979C10.1037 11.8331 9.31254 12.0007 8.42618 12.0007ZM7.71879 9.98935H8.57959C9.0114 9.98935 9.39635 9.91406 9.73442 9.76349C10.0753 9.61008 10.3594 9.3544 10.5866 8.99645C10.8168 8.63565 10.983 8.14276 11.0852 7.51776C11.1818 6.92685 11.179 6.47088 11.0767 6.14986C10.9744 5.82599 10.7798 5.60156 10.4929 5.47656C10.206 5.34872 9.83527 5.2848 9.38072 5.2848H8.50288L7.71879 9.98935Z" fill="white"/>
<path d="M6.06247 3.27344H8.3977L7.40906 9.25639C7.31247 9.82457 7.08804 10.3246 6.73577 10.7564C6.38349 11.1854 5.93889 11.5206 5.40196 11.7621C4.86503 12.0007 4.2727 12.12 3.62497 12.12C3.06815 12.12 2.57383 12.0234 2.14202 11.8302C1.71304 11.6342 1.39486 11.3274 1.18747 10.9098C0.982929 10.4893 0.937474 9.94389 1.05111 9.27344H3.42042C3.39202 9.49503 3.3977 9.68111 3.43747 9.83168C3.47724 9.9794 3.55111 10.0916 3.65906 10.1683C3.76702 10.2422 3.90906 10.2791 4.0852 10.2791C4.26133 10.2791 4.41616 10.2408 4.54969 10.1641C4.68321 10.0845 4.794 9.96946 4.88207 9.81889C4.97014 9.66548 5.03406 9.47798 5.07383 9.25639L6.06247 3.27344Z" fill="#8B5CF6"/>
<path d="M18.0598 6.54634H15.6904C15.7075 6.34464 15.6961 6.16282 15.6563 6.00089C15.6166 5.83896 15.5484 5.69975 15.4518 5.58328C15.3552 5.46396 15.2288 5.37305 15.0725 5.31055C14.9163 5.24805 14.7302 5.2168 14.5143 5.2168C14.0995 5.2168 13.7288 5.32049 13.4021 5.52788C13.0754 5.73242 12.8041 6.02646 12.5882 6.40998C12.3723 6.79066 12.2189 7.24521 12.1279 7.77362C12.0484 8.28498 12.0456 8.7097 12.1194 9.04777C12.1961 9.38583 12.3453 9.63867 12.5669 9.80629C12.7913 9.9739 13.0825 10.0577 13.4404 10.0577C13.6791 10.0577 13.8978 10.0293 14.0967 9.97248C14.2984 9.91566 14.4774 9.8347 14.6336 9.72958C14.7927 9.62163 14.9277 9.49379 15.0385 9.34606C15.1521 9.19549 15.2387 9.0293 15.2984 8.84748H17.6848C17.5939 9.2168 17.4319 9.59464 17.199 9.981C16.966 10.3645 16.6649 10.7182 16.2956 11.0421C15.9262 11.3631 15.4916 11.6231 14.9916 11.8219C14.4916 12.0208 13.9291 12.1202 13.3041 12.1202C12.4859 12.1202 11.7799 11.9412 11.1862 11.5833C10.5953 11.2253 10.1663 10.7026 9.89922 10.0151C9.63501 9.32759 9.58246 8.48953 9.74155 7.50089C9.90064 6.54634 10.2146 5.74663 10.6833 5.10174C11.1521 4.45686 11.7217 3.97106 12.3921 3.64436C13.0626 3.31765 13.7757 3.1543 14.5313 3.1543C15.1024 3.1543 15.6137 3.22958 16.0654 3.38015C16.52 3.53072 16.9021 3.75089 17.2117 4.04066C17.5242 4.32759 17.7544 4.68129 17.9021 5.10174C18.0498 5.5222 18.1024 6.00373 18.0598 6.54634Z" fill="#8B5CF6"/>
</svg>
